<?xml version="1.0" encoding="UTF-8" standalone="no"?>
<!-- Created with Inkscape (http://www.inkscape.org/) -->

<svg
   xmlns:dc="http://purl.org/dc/elements/1.1/"
   xmlns:cc="http://creativecommons.org/ns#"
   xmlns:rdf="http://www.w3.org/1999/02/22-rdf-syntax-ns#"
   xmlns:svg="http://www.w3.org/2000/svg"
   xmlns="http://www.w3.org/2000/svg"
   xmlns:sodipodi="http://sodipodi.sourceforge.net/DTD/sodipodi-0.dtd"
   xmlns:inkscape="http://www.inkscape.org/namespaces/inkscape"
   width="210mm"
   height="297mm"
   viewBox="0 0 210 297"
   version="1.1"
   id="svg2041"
   inkscape:version="0.92.4 (fd57863, 2020-04-02)"
   sodipodi:docname="wlit_logo.svg">
  <defs
     id="defs2035" />
  <sodipodi:namedview
     id="base"
     pagecolor="#ffffff"
     bordercolor="#666666"
     borderopacity="1.0"
     inkscape:pageopacity="0.0"
     inkscape:pageshadow="2"
     inkscape:zoom="0.35"
     inkscape:cx="-102.85714"
     inkscape:cy="560"
     inkscape:document-units="mm"
     inkscape:current-layer="layer1"
     showgrid="false"
     inkscape:window-width="1313"
     inkscape:window-height="713"
     inkscape:window-x="53"
     inkscape:window-y="27"
     inkscape:window-maximized="1" />
  <metadata
     id="metadata2038">
    <rdf:RDF>
      <cc:Work
         rdf:about="">
        <dc:format>image/svg+xml</dc:format>
        <dc:type
           rdf:resource="http://purl.org/dc/dcmitype/StillImage" />
        <dc:title></dc:title>
      </cc:Work>
    </rdf:RDF>
  </metadata>
  <g
     inkscape:label="Layer 1"
     inkscape:groupmode="layer"
     id="layer1">
    <circle
       inkscape:export-ydpi="300"
       inkscape:export-xdpi="300"
       inkscape:export-filename="/home/shivani/shivani/photos/wlit/bootcamp2016_prints/logo.png"
       r="99.809059"
       cy="132.95833"
       cx="105.45535"
       id="circle1738-3"
       style="opacity:0.98000004;fill:#ebb0e3;fill-opacity:1;stroke:none;stroke-width:1.49861419;stroke-miterlimit:4;stroke-dasharray:none;stroke-opacity:1" />
    <path
       inkscape:connector-curvature="0"
       d="m 30.835815,152.29711 -1.637607,6.31167 h -0.42892 l -2.859344,-7.55586 q -0.194961,-0.53138 -0.402897,-0.62209 -0.194996,-0.10369 -1.091762,-0.10369 v -0.1296 h 4.444977 v 0.1296 q -0.792817,0 -1.104737,0.0907 -0.298911,0.0778 -0.298911,0.32401 0,0.1296 0.07796,0.31105 l 2.014552,5.43038 1.182739,-4.51019 -0.272923,-0.92019 q -0.155962,-0.5184 -0.376946,-0.62209 -0.220949,-0.10369 -1.130726,-0.10369 v -0.1296 h 4.431966 v 0.1296 q -0.792818,0 -1.104738,0.0907 -0.29891,0.0778 -0.29891,0.34993 0,0.14256 0.05197,0.28513 l 1.676608,5.44333 1.442684,-4.03065 q 0.220949,-0.63507 0.220949,-1.03682 0,-1.10165 -1.559647,-1.10165 v -0.12959 h 3.340239 v 0.12959 q -0.922791,0 -1.364649,0.94611 -0.06502,0.14256 -0.480931,1.27011 l -2.131514,6.06543 h -0.415909 z"
       style="font-style:normal;font-variant:normal;font-weight:normal;font-stretch:normal;font-size:35.10945892px;line-height:1.25;font-family:'Modern No. 20';-inkscape-font-specification:'Modern No. 20';text-align:center;letter-spacing:0px;word-spacing:0px;text-anchor:middle;opacity:0.98000004;fill:#c345b2;fill-opacity:1;stroke:none;stroke-width:0.36966312"
       id="path1759" />
    <path
       inkscape:connector-curvature="0"
       d="m 42.478577,155.83527 q 0,1.25716 -0.870816,2.08661 -0.792815,0.7517 -1.780591,0.7517 -1.013802,0 -1.767583,-0.69986 -0.883827,-0.8165 -0.883827,-2.13845 0,-1.25715 0.870816,-2.07365 0.79278,-0.73874 1.780594,-0.73874 1.000787,0 1.767579,0.69986 0.883828,0.80354 0.883828,2.11253 z m -1.35171,0 q 0,-1.43859 -0.246936,-2.0218 -0.285934,-0.67394 -1.052761,-0.67394 -0.70188,0 -1.00079,0.64802 -0.298946,0.64801 -0.298946,2.04772 0,1.42563 0.259945,2.07364 0.272961,0.64803 1.039791,0.64803 0.701841,0 1.000787,-0.66098 0.29891,-0.66097 0.29891,-2.06069 z"
       style="font-style:normal;font-variant:normal;font-weight:normal;font-stretch:normal;font-size:35.10945892px;line-height:1.25;font-family:'Modern No. 20';-inkscape-font-specification:'Modern No. 20';text-align:center;letter-spacing:0px;word-spacing:0px;text-anchor:middle;opacity:0.98000004;fill:#c345b2;fill-opacity:1;stroke:none;stroke-width:0.36966312"
       id="path1761" />
    <path
       inkscape:connector-curvature="0"
       d="m 48.460689,154.60405 q 0.103947,-0.59618 0.298907,-0.94611 0.324935,-0.55728 0.896805,-0.62209 0.09097,0 0.19496,-0.013 0.116998,-0.013 0.168973,-0.013 0.805791,0 1.286687,0.4925 0.402896,0.41472 0.402896,0.98497 v 3.43449 q 0,0.24624 0.03903,0.324 0.02588,0.0518 0.116923,0.0908 0.103986,0.0388 0.350959,0.0648 0.259947,0.0259 0.428883,0.0259 v 0.12961 h -3.093267 v -0.12961 q 0.311921,0 0.480858,-0.013 0.168935,-0.0259 0.363933,-0.12961 0.07796,-0.0648 0.07796,-0.36288 v -3.27896 q 0,-0.60915 -0.103949,-0.94611 -0.169011,-0.53137 -0.610868,-0.53137 -0.454908,0 -0.75382,0.42769 -0.337945,0.47953 -0.519893,1.73668 v 2.59207 q 0,0.25919 0.03896,0.33696 0.02588,0.0388 0.116999,0.0778 0.09097,0.0259 0.324894,0.0648 0.246973,0.0259 0.454944,0.0259 v 0.12961 h -3.093339 v -0.12961 q 0.493907,0 0.766866,-0.0907 l 0.09093,-0.0388 q 0.078,-0.0648 0.078,-0.37586 v -3.27895 q 0,-0.62209 -0.103986,-0.9461 -0.168936,-0.53137 -0.623844,-0.53137 -0.58488,0 -0.909814,0.73873 -0.220948,0.51842 -0.350922,1.47748 v 2.54021 q 0,0.25922 0.03899,0.33698 0.02588,0.0388 0.116998,0.0778 0.103951,0.0388 0.350884,0.0648 0.259949,0.0259 0.42892,0.0259 v 0.12959 h -3.288263 v -0.12959 q 0.272923,0 0.545882,-0.0259 0.285934,-0.0259 0.506882,-0.10368 0.078,-0.0648 0.078,-0.37586 v -3.92697 q 0,-0.11663 -0.01295,-0.23329 0,-0.11663 -0.052,-0.18144 -0.09101,-0.1296 -0.155961,-0.15552 -0.194959,-0.0648 -0.896804,-0.0648 v -0.12959 l 2.33945,-0.22034 v 1.67189 q 0.09101,-0.62209 0.27296,-0.98498 0.298946,-0.59618 0.88379,-0.66098 0.129974,-0.013 0.220986,-0.013 0.103949,-0.013 0.15596,-0.013 0.831816,0 1.260699,0.46657 0.389921,0.42768 0.389921,1.12755 z"
       style="font-style:normal;font-variant:normal;font-weight:normal;font-stretch:normal;font-size:35.10945892px;line-height:1.25;font-family:'Modern No. 20';-inkscape-font-specification:'Modern No. 20';text-align:center;letter-spacing:0px;word-spacing:0px;text-anchor:middle;opacity:0.98000004;fill:#c345b2;fill-opacity:1;stroke:none;stroke-width:0.36966312"
       id="path1763" />
    <path
       inkscape:connector-curvature="0"
       d="m 54.202332,155.8871 q 0,1.38677 0.324934,2.00886 0.337911,0.6221 1.013765,0.6221 0.714818,0 1.260699,-0.47954 0.66288,-0.58321 0.66288,-1.58115 h 0.116962 q 0,0.97202 -0.623882,1.59411 -0.623842,0.6221 -1.663632,0.6221 -0.870778,0 -1.585595,-0.66098 -0.844865,-0.77761 -0.844865,-2.03477 0,-1.36083 0.831852,-2.21621 0.72783,-0.73874 1.637609,-0.73874 0.844827,0 1.403721,0.4925 0.818803,0.72578 0.818803,2.37172 z m 2.261488,-0.16847 q 0,-1.24419 -0.23396,-1.8922 -0.220946,-0.66098 -0.727828,-0.66098 -0.714857,0 -1.013766,0.6221 -0.285934,0.62209 -0.285934,1.93108 z"
       style="font-style:normal;font-variant:normal;font-weight:normal;font-stretch:normal;font-size:35.10945892px;line-height:1.25;font-family:'Modern No. 20';-inkscape-font-specification:'Modern No. 20';text-align:center;letter-spacing:0px;word-spacing:0px;text-anchor:middle;opacity:0.98000004;fill:#c345b2;fill-opacity:1;stroke:none;stroke-width:0.36966312"
       id="path1766" />
    <path
       inkscape:connector-curvature="0"
       d="m 60.342623,155.38166 v 2.54022 q 0,0.2592 0.03899,0.33697 0.02588,0.0388 0.117001,0.0778 0.103947,0.0388 0.350883,0.0648 0.259946,0.0259 0.454906,0.0259 v 0.1296 h -3.327261 v -0.1296 q 0.285936,0 0.558894,-0.0259 0.285934,-0.0259 0.506882,-0.10368 0.078,-0.0648 0.078,-0.37584 v -3.92697 q 0,-0.11666 -0.01294,-0.2333 0,-0.11664 -0.05197,-0.18144 l -0.078,-0.1296 q -0.129936,-0.0907 -0.987778,-0.0907 v -0.1296 L 60.342694,153.01 v 1.67188 q 0.078,-0.5573 0.337946,-0.98499 0.363932,-0.59616 0.766791,-0.63505 0.402933,-0.0519 0.519895,-0.0519 0.81884,0 1.299735,0.49249 0.402897,0.41473 0.402897,0.98497 v 3.43449 q 0,0.2592 0.03899,0.33697 0.02588,0.0388 0.129974,0.0778 0.103986,0.0388 0.376907,0.0648 0.272961,0.0259 0.519859,0.0259 v 0.1296 H 61.40847 v -0.1296 q 0.207972,0 0.480893,-0.0259 0.272961,-0.0259 0.480894,-0.10368 0.07801,-0.0648 0.07801,-0.37584 v -3.27896 q 0,-0.62211 -0.103986,-0.94611 -0.168975,-0.53138 -0.623882,-0.53138 -0.597856,0 -0.9748,0.73874 -0.285899,0.5573 -0.402897,1.47747 z"
       style="font-style:normal;font-variant:normal;font-weight:normal;font-stretch:normal;font-size:35.10945892px;line-height:1.25;font-family:'Modern No. 20';-inkscape-font-specification:'Modern No. 20';text-align:center;letter-spacing:0px;word-spacing:0px;text-anchor:middle;opacity:0.98000004;fill:#c345b2;fill-opacity:1;stroke:none;stroke-width:0.36966312"
       id="path1768" />
    <path
       inkscape:connector-curvature="0"
       d="m 73.264345,158.38845 q 1.572658,0 2.404474,-0.9461 0.831777,-0.95905 0.831777,-2.89015 h 0.155963 v 4.00474 h -8.500033 v -0.14257 q 0.571867,0 0.974764,-0.0389 0.402931,-0.0388 0.545881,-0.0907 0.15596,-0.0648 0.19496,-0.14257 0.05197,-0.0907 0.05197,-0.45361 v -6.63568 q 0,-0.37585 -0.05197,-0.46657 -0.02588,-0.0519 -0.181948,-0.10368 -0.142986,-0.0519 -0.584882,-0.10368 -0.42892,-0.0519 -0.948775,-0.0519 v -0.1296 h 5.341741 v 0.1296 q -0.727792,0 -1.1437,0.0388 -0.402934,0.0389 -0.57187,0.10368 -0.168972,0.0648 -0.19496,0.11665 -0.06498,0.11664 -0.06498,0.46658 v 6.6227 q 0,0.37585 0.05197,0.47953 0.02588,0.0518 0.155998,0.10368 0.441896,0.12961 1.533622,0.12961 z"
       style="font-style:normal;font-variant:normal;font-weight:normal;font-stretch:normal;font-size:35.10945892px;line-height:1.25;font-family:'Modern No. 20';-inkscape-font-specification:'Modern No. 20';text-align:center;letter-spacing:0px;word-spacing:0px;text-anchor:middle;opacity:0.98000004;fill:#c345b2;fill-opacity:1;stroke:none;stroke-width:0.36966312"
       id="path1770" />
    <path
       inkscape:connector-curvature="0"
       d="m 78.368765,155.8871 q 0,1.38677 0.324896,2.00886 0.337909,0.6221 1.013763,0.6221 0.714893,0 1.260737,-0.47954 0.662844,-0.58321 0.662844,-1.58115 h 0.11696 q 0,0.97202 -0.623842,1.59411 -0.623844,0.6221 -1.663597,0.6221 -0.870851,0 -1.585669,-0.66098 -0.844792,-0.77761 -0.844792,-2.03477 0,-1.36083 0.831815,-2.21621 0.727795,-0.73874 1.637608,-0.73874 0.844828,0 1.403687,0.4925 0.818804,0.72578 0.818804,2.37172 z m 2.261488,-0.16847 q 0,-1.24419 -0.23396,-1.8922 -0.220949,-0.66098 -0.72783,-0.66098 -0.714854,0 -1.013765,0.6221 -0.285933,0.62209 -0.285933,1.93108 z"
       style="font-style:normal;font-variant:normal;font-weight:normal;font-stretch:normal;font-size:35.10945892px;line-height:1.25;font-family:'Modern No. 20';-inkscape-font-specification:'Modern No. 20';text-align:center;letter-spacing:0px;word-spacing:0px;text-anchor:middle;opacity:0.98000004;fill:#c345b2;fill-opacity:1;stroke:none;stroke-width:0.36966312"
       id="path1772" />
    <path
       inkscape:connector-curvature="0"
       d="m 85.496829,157.13131 v -1.72373 q -0.15596,0.20736 -0.467882,0.25921 -0.298946,0.0389 -0.584882,0.0778 -0.376908,0.0907 -0.597856,0.41472 -0.259946,0.38882 -0.259946,1.08868 0,0.75169 0.142948,1.02385 0.155963,0.25922 0.480932,0.25922 0.493834,0 0.883754,-0.40177 0.402932,-0.41473 0.402932,-0.99794 z m 0.03896,-2.33287 v -0.75169 q 0,-0.51841 -0.168936,-0.69986 -0.168974,-0.18144 -0.72783,-0.18144 -0.454872,0 -0.792817,0.16849 -0.337909,0.16848 -0.441895,0.45361 0.05197,-0.013 0.129974,-0.013 0.246934,0 0.402894,0.19441 0.155962,0.1944 0.155962,0.44065 0,0.28512 -0.19496,0.46657 -0.19496,0.18145 -0.454908,0.18145 -0.168936,0 -0.298909,-0.0907 -0.376947,-0.24624 -0.376947,-0.6221 0,-0.18144 0.078,-0.41472 0.181949,-0.50545 0.909778,-0.73873 0.519894,-0.16849 1.052763,-0.16849 0.961788,0 1.455697,0.36289 0.441896,0.324 0.441896,0.8165 v 2.86423 q 0,0.77762 0.03899,0.95906 0.09097,0.44065 0.46792,0.44065 0.337872,0 0.45487,-0.34993 0.116962,-0.34993 0.116962,-1.01091 0,-0.18144 -0.01295,-0.3629 0,-0.18143 0,-0.37584 V 156.25 h 0.142987 v 0.57026 q 0,0.27216 0.01294,0.51842 0,0.75168 -0.181985,1.01089 -0.233922,0.32401 -0.94874,0.32401 -0.55893,0 -0.831852,-0.19441 -0.324934,-0.23328 -0.42892,-0.79058 -0.272924,0.63506 -0.818804,0.85538 -0.324898,0.12961 -0.870779,0.12961 -0.545881,0 -0.948815,-0.25921 -0.558856,-0.34992 -0.558856,-1.06274 0,-0.69986 0.545882,-1.17938 0.545879,-0.46658 1.325722,-0.53138 0.779768,-0.0648 1.052726,-0.20737 0.272924,-0.14256 0.272924,-0.63505 z"
       style="font-style:normal;font-variant:normal;font-weight:normal;font-stretch:normal;font-size:35.10945892px;line-height:1.25;font-family:'Modern No. 20';-inkscape-font-specification:'Modern No. 20';text-align:center;letter-spacing:0px;word-spacing:0px;text-anchor:middle;opacity:0.98000004;fill:#c345b2;fill-opacity:1;stroke:none;stroke-width:0.36966312"
       id="path1775" />
    <path
       inkscape:connector-curvature="0"
       d="m 91.863981,156.75546 q 0,0.63505 -0.311921,1.19234 -0.402933,0.72578 -1.117752,0.72578 -0.935802,0 -1.54667,-0.71282 -0.662841,-0.77762 -0.662841,-2.13845 0,-0.93315 0.610868,-1.78852 0.714818,-1.01091 1.80658,-1.01091 0.584844,0 0.92279,0.64802 0.233959,0.45361 0.298946,0.99795 v -3.66777 q 0,-0.25921 -0.07796,-0.36289 -0.078,-0.10367 -0.220984,-0.1296 -0.324895,-0.0648 -1.455695,-0.0648 v -0.12961 l 2.976341,-0.22032 v 7.69842 q 0,0.2592 0.03899,0.33697 0.02588,0.0388 0.116962,0.0778 0.272958,0.0908 1.065776,0.0908 v 0.1296 l -2.443438,0.24625 z m -0.06498,-0.94611 q 0,-1.29603 -0.298946,-1.96997 -0.298948,-0.67393 -0.818842,-0.67393 -0.623841,0 -0.870778,0.58322 -0.23396,0.57025 -0.23396,2.0866 0,1.3738 0.142986,1.91813 0.207937,0.79057 0.857804,0.79057 0.441894,0 0.792816,-0.66096 0.42892,-0.79058 0.42892,-2.07366 z"
       style="font-style:normal;font-variant:normal;font-weight:normal;font-stretch:normal;font-size:35.10945892px;line-height:1.25;font-family:'Modern No. 20';-inkscape-font-specification:'Modern No. 20';text-align:center;letter-spacing:0px;word-spacing:0px;text-anchor:middle;opacity:0.98000004;fill:#c345b2;fill-opacity:1;stroke:none;stroke-width:0.36966312"
       id="path1777" />
    <path
       inkscape:connector-curvature="0"
       d="m 95.960478,155.8871 q 0,1.38677 0.324935,2.00886 0.337946,0.6221 1.013802,0.6221 0.714817,0 1.260697,-0.47954 0.662844,-0.58321 0.662844,-1.58115 h 0.116955 q 0,0.97202 -0.623838,1.59411 -0.623883,0.6221 -1.663635,0.6221 -0.870814,0 -1.585631,-0.66098 -0.844828,-0.77761 -0.844828,-2.03477 0,-1.36083 0.831816,-2.21621 0.727829,-0.73874 1.637641,-0.73874 0.844792,0 1.403692,0.4925 0.818798,0.72578 0.818798,2.37172 z m 2.261488,-0.16847 q 0,-1.24419 -0.23392,-1.8922 -0.220955,-0.66098 -0.727874,-0.66098 -0.714817,0 -1.013765,0.6221 -0.285929,0.62209 -0.285929,1.93108 z"
       style="font-style:normal;font-variant:normal;font-weight:normal;font-stretch:normal;font-size:35.10945892px;line-height:1.25;font-family:'Modern No. 20';-inkscape-font-specification:'Modern No. 20';text-align:center;letter-spacing:0px;word-spacing:0px;text-anchor:middle;opacity:0.98000004;fill:#c345b2;fill-opacity:1;stroke:none;stroke-width:0.36966312"
       id="path1779" />
    <path
       inkscape:connector-curvature="0"
       d="m 101.02202,153.90418 q 0,-0.25919 -0.052,-0.324 -0.091,-0.12961 -0.16894,-0.15552 -0.23396,-0.0648 -1.065772,-0.0648 v -0.1296 l 2.508422,-0.1944 v 1.633 q 0.052,-0.53137 0.36393,-0.99795 0.42888,-0.64801 1.07875,-0.64801 0.24694,0 0.53287,0.16848 0.28593,0.15552 0.37691,0.40176 0.10398,0.24625 0.10398,0.44066 0,0.51841 -0.42888,0.71282 -0.10399,0.0519 -0.27296,0.0519 -0.25994,0 -0.44189,-0.18144 -0.18198,-0.18144 -0.18198,-0.54433 0,-0.23329 0.16897,-0.46657 0.18198,-0.23328 0.41594,-0.18144 -0.078,-0.25921 -0.46792,-0.25921 -0.37694,0 -0.75382,0.54434 -0.4939,0.69985 -0.4939,1.80147 v 2.41063 q 0,0.25919 0.039,0.33696 0.0259,0.0388 0.11697,0.0778 0.27292,0.0907 1.13072,0.0907 v 0.12961 h -3.795106 v -0.12961 q 0.376906,0 0.675846,-0.0259 0.31192,-0.0259 0.53288,-0.10368 0.0779,-0.0648 0.0779,-0.37585 z"
       style="font-style:normal;font-variant:normal;font-weight:normal;font-stretch:normal;font-size:35.10945892px;line-height:1.25;font-family:'Modern No. 20';-inkscape-font-specification:'Modern No. 20';text-align:center;letter-spacing:0px;word-spacing:0px;text-anchor:middle;opacity:0.98000004;fill:#c345b2;fill-opacity:1;stroke:none;stroke-width:0.36966312"
       id="path1781" />
    <path
       inkscape:connector-curvature="0"
       d="m 107.98299,153.42466 q 0.50685,-0.37586 0.53287,-0.40178 v 1.94405 l -0.11696,-0.0259 q -0.18199,-0.77763 -0.64986,-1.27012 -0.50692,-0.53137 -1.11776,-0.53137 -0.46792,0 -0.76683,0.18145 -0.40292,0.24623 -0.40292,0.81649 0,0.46658 0.44192,0.72578 0.31193,0.18145 1.24772,0.40177 0.93578,0.22034 1.31269,0.51841 0.53289,0.41472 0.53289,1.32196 0,0.84242 -0.57186,1.24418 -0.45491,0.324 -1.14374,0.324 -0.5719,0 -0.81881,-0.0778 -0.36393,-0.11666 -0.79284,-0.55731 -0.5199,0.60914 -0.54589,0.63505 v -2.29396 h 0.091 q 0.22091,0.80353 0.36389,1.11459 0.19497,0.42769 0.41592,0.63505 0.2989,0.28512 0.55885,0.36289 0.27292,0.0648 0.80584,0.0648 0.40289,0 0.66284,-0.20737 0.31192,-0.24625 0.31192,-0.69986 0,-0.58321 -0.41591,-0.86834 -0.3249,-0.22032 -1.15671,-0.38881 -0.81881,-0.16849 -1.27372,-0.54434 -0.54588,-0.4536 -0.54588,-1.2053 0,-0.67394 0.4549,-1.1405 0.46789,-0.47954 1.13074,-0.47954 0.50689,0 0.88383,0.16849 0.49387,0.22032 0.57186,0.23327 z"
       style="font-style:normal;font-variant:normal;font-weight:normal;font-stretch:normal;font-size:35.10945892px;line-height:1.25;font-family:'Modern No. 20';-inkscape-font-specification:'Modern No. 20';text-align:center;letter-spacing:0px;word-spacing:0px;text-anchor:middle;opacity:0.98000004;fill:#c345b2;fill-opacity:1;stroke:none;stroke-width:0.36966312"
       id="path1783" />
    <path
       inkscape:connector-curvature="0"
       d="m 115.08851,153.03585 v 4.88603 q 0,0.2592 0.0389,0.33697 0.0258,0.0388 0.11701,0.0778 0.27291,0.0907 1.13075,0.0907 v 0.12961 h -3.79514 v -0.12961 q 0.37691,0 0.67586,-0.0259 0.31192,-0.0259 0.53287,-0.10368 0.078,-0.0648 0.078,-0.37584 v -4.0177 q 0,-0.24625 -0.052,-0.31105 -0.0909,-0.12961 -0.16894,-0.15553 -0.23396,-0.0648 -1.06577,-0.0648 v -0.12961 z m -0.68888,-2.94199 q 0.31193,0 0.51991,0.20737 0.20793,0.20736 0.20793,0.51841 0,0.31104 -0.20793,0.51841 -0.20798,0.20736 -0.51991,0.20736 -0.31187,0 -0.51985,-0.20736 -0.20793,-0.20737 -0.20793,-0.51841 0,-0.31105 0.20793,-0.51841 0.20798,-0.20737 0.51985,-0.20737 z"
       style="font-style:normal;font-variant:normal;font-weight:normal;font-stretch:normal;font-size:35.10945892px;line-height:1.25;font-family:'Modern No. 20';-inkscape-font-specification:'Modern No. 20';text-align:center;letter-spacing:0px;word-spacing:0px;text-anchor:middle;opacity:0.98000004;fill:#c345b2;fill-opacity:1;stroke:none;stroke-width:0.36966312"
       id="path1785" />
    <path
       inkscape:connector-curvature="0"
       d="m 119.10867,155.38166 v 2.54022 q 0,0.2592 0.0389,0.33697 0.0258,0.0388 0.117,0.0778 0.104,0.0388 0.35093,0.0648 0.25994,0.0259 0.45491,0.0259 v 0.1296 h -3.32727 v -0.1296 q 0.28593,0 0.55889,-0.0259 0.28593,-0.0259 0.50689,-0.10368 0.078,-0.0648 0.078,-0.37584 v -3.92697 q 0,-0.11666 -0.013,-0.2333 0,-0.11664 -0.052,-0.18144 l -0.0781,-0.1296 q -0.12997,-0.0907 -0.98778,-0.0907 v -0.1296 l 2.35245,-0.22032 v 1.67188 q 0.0781,-0.5573 0.33796,-0.98499 0.36389,-0.59616 0.76679,-0.63505 0.40293,-0.0519 0.5199,-0.0519 0.81883,0 1.29969,0.49249 0.40294,0.41473 0.40294,0.98497 v 3.43449 q 0,0.2592 0.039,0.33697 0.0258,0.0388 0.12998,0.0778 0.10395,0.0388 0.37687,0.0648 0.27296,0.0259 0.51989,0.0259 v 0.1296 h -3.32722 v -0.1296 q 0.20793,0 0.48085,-0.0259 0.27296,-0.0259 0.48093,-0.10368 0.078,-0.0648 0.078,-0.37584 v -3.27896 q 0,-0.62211 -0.10396,-0.94611 -0.16901,-0.53138 -0.62388,-0.53138 -0.59785,0 -0.97476,0.73874 -0.28593,0.5573 -0.40294,1.47747 z"
       style="font-style:normal;font-variant:normal;font-weight:normal;font-stretch:normal;font-size:35.10945892px;line-height:1.25;font-family:'Modern No. 20';-inkscape-font-specification:'Modern No. 20';text-align:center;letter-spacing:0px;word-spacing:0px;text-anchor:middle;opacity:0.98000004;fill:#c345b2;fill-opacity:1;stroke:none;stroke-width:0.36966312"
       id="path1787" />
    <path
       inkscape:connector-curvature="0"
       d="m 134.61681,150.19754 v 3.69369 h -0.18195 q -0.29894,-2.11254 -0.94881,-2.90311 -0.53287,-0.66098 -1.57262,-0.66098 -0.25995,0 -0.28593,0.0259 -0.052,0.0388 -0.052,0.33697 v 6.99856 q 0,0.37585 0.052,0.47954 0.0258,0.0519 0.18194,0.11663 0.15596,0.0519 0.59785,0.0907 0.44194,0.0388 1.19577,0.0388 v 0.14257 h -5.65375 v -0.14257 q 0.74084,0 1.18274,-0.0388 0.44189,-0.0388 0.59785,-0.0907 0.15596,-0.0648 0.19496,-0.14256 0.052,-0.0907 0.052,-0.45361 v -6.98558 q 0,-0.33695 -0.0781,-0.36288 -0.039,-0.013 -0.27292,-0.013 -1.01377,0 -1.54668,0.648 -0.64986,0.80354 -0.97476,2.89016 h -0.18199 v -3.66777 z"
       style="font-style:normal;font-variant:normal;font-weight:normal;font-stretch:normal;font-size:35.10945892px;line-height:1.25;font-family:'Modern No. 20';-inkscape-font-specification:'Modern No. 20';text-align:center;letter-spacing:0px;word-spacing:0px;text-anchor:middle;opacity:0.98000004;fill:#c345b2;fill-opacity:1;stroke:none;stroke-width:0.36966312"
       id="path1789" />
    <path
       inkscape:connector-curvature="0"
       d="m 136.24632,155.8871 q 0,1.38677 0.3249,2.00886 0.33794,0.6221 1.01376,0.6221 0.71489,0 1.26077,-0.47954 0.66281,-0.58321 0.66281,-1.58115 h 0.11697 q 0,0.97202 -0.62385,1.59411 -0.62384,0.6221 -1.66359,0.6221 -0.87085,0 -1.58568,-0.66098 -0.84478,-0.77761 -0.84478,-2.03477 0,-1.36083 0.83181,-2.21621 0.7278,-0.73874 1.63761,-0.73874 0.84482,0 1.40369,0.4925 0.8188,0.72578 0.8188,2.37172 z m 2.26149,-0.16847 q 0,-1.24419 -0.23396,-1.8922 -0.22095,-0.66098 -0.72782,-0.66098 -0.71486,0 -1.01378,0.6221 -0.28593,0.62209 -0.28593,1.93108 z"
       style="font-style:normal;font-variant:normal;font-weight:normal;font-stretch:normal;font-size:35.10945892px;line-height:1.25;font-family:'Modern No. 20';-inkscape-font-specification:'Modern No. 20';text-align:center;letter-spacing:0px;word-spacing:0px;text-anchor:middle;opacity:0.98000004;fill:#c345b2;fill-opacity:1;stroke:none;stroke-width:0.36966312"
       id="path1791" />
    <path
       inkscape:connector-curvature="0"
       d="m 143.88127,153.99491 q -0.052,-0.41473 -0.36393,-0.62209 -0.31193,-0.22033 -0.77981,-0.22033 -0.72783,0 -1.01376,0.64801 -0.28594,0.64802 -0.28594,2.04773 0,1.29603 0.36394,1.96997 0.36389,0.66097 0.97477,0.66097 0.72782,0 1.2347,-0.47953 0.63686,-0.60913 0.63686,-1.78851 h 0.11696 q 0,1.1405 -0.59785,1.80147 -0.59787,0.66098 -1.63761,0.66098 -0.84483,0 -1.5727,-0.67394 -0.87077,-0.80354 -0.87077,-2.04773 0,-1.33491 0.88383,-2.19029 0.76678,-0.73874 1.5986,-0.73874 0.55886,0 1.0398,0.19441 0.72782,0.29809 0.89676,0.92019 0.0651,0.23328 0.0651,0.40177 0,0.41472 -0.38992,0.63505 -0.14299,0.0908 -0.33795,0.0908 -0.23392,0 -0.42892,-0.16849 -0.18195,-0.18144 -0.18195,-0.47953 0,-0.27217 0.16898,-0.44065 0.18199,-0.18144 0.48089,-0.18144 z"
       style="font-style:normal;font-variant:normal;font-weight:normal;font-stretch:normal;font-size:35.10945892px;line-height:1.25;font-family:'Modern No. 20';-inkscape-font-specification:'Modern No. 20';text-align:center;letter-spacing:0px;word-spacing:0px;text-anchor:middle;opacity:0.98000004;fill:#c345b2;fill-opacity:1;stroke:none;stroke-width:0.36966312"
       id="path1793" />
    <path
       inkscape:connector-curvature="0"
       d="m 147.68274,155.32982 v 2.59206 q 0,0.2592 0.0389,0.33697 0.0258,0.0388 0.117,0.0778 0.10399,0.0388 0.35088,0.0648 0.25995,0.0259 0.45495,0.0259 v 0.1296 h -3.47026 v -0.1296 q 0.37691,0 0.67586,-0.0259 0.31196,-0.0259 0.53287,-0.10368 0.0781,-0.0648 0.0781,-0.37584 v -6.77825 q 0,-0.16848 -0.013,-0.28512 0,-0.11665 -0.0519,-0.18145 -0.0909,-0.1296 -0.16897,-0.15552 -0.23393,-0.0648 -1.03972,-0.0648 v -0.1296 l 2.49541,-0.22033 v 4.575 q 0.078,-0.51841 0.37691,-0.99794 0.3769,-0.59619 0.8968,-0.64802 0.10399,0 0.22095,-0.013 0.12997,-0.013 0.18195,-0.013 0.90981,0 1.36472,0.49249 0.36393,0.40177 0.36393,0.98498 v 3.43449 q 0,0.25919 0.0389,0.33696 0.0258,0.0388 0.12997,0.0778 0.10398,0.0388 0.37687,0.0648 0.27296,0.0259 0.54588,0.0259 v 0.12961 h -3.35321 v -0.12961 q 0.20798,0 0.4809,-0.0259 0.27295,-0.0259 0.48089,-0.10369 0.0781,-0.0648 0.0781,-0.37584 v -3.49929 q 0,-0.55728 -0.11699,-0.82945 -0.18199,-0.42769 -0.68883,-0.42769 -0.54588,0 -0.9358,0.71281 -0.3249,0.59618 -0.4419,1.45156 z"
       style="font-style:normal;font-variant:normal;font-weight:normal;font-stretch:normal;font-size:35.10945892px;line-height:1.25;font-family:'Modern No. 20';-inkscape-font-specification:'Modern No. 20';text-align:center;letter-spacing:0px;word-spacing:0px;text-anchor:middle;opacity:0.98000004;fill:#c345b2;fill-opacity:1;stroke:none;stroke-width:0.36966312"
       id="path1795" />
    <path
       inkscape:connector-curvature="0"
       d="m 154.77443,155.38166 v 2.54022 q 0,0.2592 0.039,0.33697 0.0258,0.0388 0.11697,0.0778 0.10399,0.0388 0.35096,0.0648 0.25994,0.0259 0.45487,0.0259 v 0.1296 H 152.409 v -0.1296 q 0.28593,0 0.55886,-0.0259 0.28593,-0.0259 0.50692,-0.10368 0.078,-0.0648 0.078,-0.37584 v -3.92697 q 0,-0.11666 -0.013,-0.2333 0,-0.11664 -0.052,-0.18144 l -0.0781,-0.1296 q -0.12997,-0.0907 -0.98774,-0.0907 v -0.1296 l 2.35247,-0.22032 v 1.67188 q 0.0781,-0.5573 0.33794,-0.98499 0.3639,-0.59616 0.76679,-0.63505 0.40289,-0.0519 0.5199,-0.0519 0.81881,0 1.29969,0.49249 0.4029,0.41473 0.4029,0.98497 v 3.43449 q 0,0.2592 0.039,0.33697 0.0258,0.0388 0.12994,0.0778 0.10398,0.0388 0.37691,0.0648 0.27291,0.0259 0.51988,0.0259 v 0.1296 h -3.32725 v -0.1296 q 0.20797,0 0.48088,-0.0259 0.27293,-0.0259 0.4809,-0.10368 0.078,-0.0648 0.078,-0.37584 v -3.27896 q 0,-0.62211 -0.10396,-0.94611 -0.16897,-0.53138 -0.62389,-0.53138 -0.59781,0 -0.97476,0.73874 -0.28594,0.5573 -0.40289,1.47747 z"
       style="font-style:normal;font-variant:normal;font-weight:normal;font-stretch:normal;font-size:35.10945892px;line-height:1.25;font-family:'Modern No. 20';-inkscape-font-specification:'Modern No. 20';text-align:center;letter-spacing:0px;word-spacing:0px;text-anchor:middle;opacity:0.98000004;fill:#c345b2;fill-opacity:1;stroke:none;stroke-width:0.36966312"
       id="path1797" />
    <path
       inkscape:connector-curvature="0"
       d="m 164.75762,155.83527 q 0,1.25716 -0.87081,2.08661 -0.79281,0.7517 -1.78059,0.7517 -1.01377,0 -1.76762,-0.69986 -0.88375,-0.8165 -0.88375,-2.13845 0,-1.25715 0.87077,-2.07365 0.79283,-0.73874 1.7806,-0.73874 1.00075,0 1.76762,0.69986 0.88378,0.80354 0.88378,2.11253 z m -1.3517,0 q 0,-1.43859 -0.24694,-2.0218 -0.28593,-0.67394 -1.05276,-0.67394 -0.70185,0 -1.00076,0.64802 -0.29897,0.64801 -0.29897,2.04772 0,1.42563 0.25993,2.07364 0.27297,0.64803 1.0398,0.64803 0.70184,0 1.00075,-0.66098 0.29895,-0.66097 0.29895,-2.06069 z"
       style="font-style:normal;font-variant:normal;font-weight:normal;font-stretch:normal;font-size:35.10945892px;line-height:1.25;font-family:'Modern No. 20';-inkscape-font-specification:'Modern No. 20';text-align:center;letter-spacing:0px;word-spacing:0px;text-anchor:middle;opacity:0.98000004;fill:#c345b2;fill-opacity:1;stroke:none;stroke-width:0.36966312"
       id="path1799" />
    <path
       inkscape:connector-curvature="0"
       d="m 167.71141,157.92188 q 0,0.2592 0.039,0.33697 0.0258,0.0388 0.117,0.0778 0.27292,0.0907 1.13072,0.0907 v 0.12961 h -3.79511 v -0.12961 q 0.37688,0 0.67586,-0.0259 0.31188,-0.0259 0.53283,-0.10368 0.0781,-0.0648 0.0781,-0.37584 v -6.92081 q 0,-0.2592 -0.0781,-0.36289 -0.078,-0.10369 -0.15596,-0.1296 -0.23392,-0.0648 -1.03975,-0.0648 v -0.1296 l 2.49544,-0.22032 z"
       style="font-style:normal;font-variant:normal;font-weight:normal;font-stretch:normal;font-size:35.10945892px;line-height:1.25;font-family:'Modern No. 20';-inkscape-font-specification:'Modern No. 20';text-align:center;letter-spacing:0px;word-spacing:0px;text-anchor:middle;opacity:0.98000004;fill:#c345b2;fill-opacity:1;stroke:none;stroke-width:0.36966312"
       id="path1801" />
    <path
       inkscape:connector-curvature="0"
       d="m 174.65776,155.83527 q 0,1.25716 -0.87085,2.08661 -0.79283,0.7517 -1.7806,0.7517 -1.01376,0 -1.76762,-0.69986 -0.88376,-0.8165 -0.88376,-2.13845 0,-1.25715 0.87079,-2.07365 0.79281,-0.73874 1.78059,-0.73874 1.00079,0 1.76762,0.69986 0.88383,0.80354 0.88383,2.11253 z m -1.35171,0 q 0,-1.43859 -0.24697,-2.0218 -0.2859,-0.67394 -1.05277,-0.67394 -0.70184,0 -1.00075,0.64802 -0.29895,0.64801 -0.29895,2.04772 0,1.42563 0.25996,2.07364 0.27295,0.64803 1.03974,0.64803 0.70184,0 1.00079,-0.66098 0.29895,-0.66097 0.29895,-2.06069 z"
       style="font-style:normal;font-variant:normal;font-weight:normal;font-stretch:normal;font-size:35.10945892px;line-height:1.25;font-family:'Modern No. 20';-inkscape-font-specification:'Modern No. 20';text-align:center;letter-spacing:0px;word-spacing:0px;text-anchor:middle;opacity:0.98000004;fill:#c345b2;fill-opacity:1;stroke:none;stroke-width:0.36966312"
       id="path1803" />
    <path
       inkscape:connector-curvature="0"
       d="m 176.36379,156.35369 q -0.41591,-0.20737 -0.64987,-0.54434 -0.23392,-0.33697 -0.23392,-0.82946 0,-0.82946 0.75382,-1.41267 0.68883,-0.53137 1.52065,-0.53137 0.24697,0 0.5199,0.0648 0.27294,0.0648 0.50691,0.16847 v -0.31104 q 0,-0.60914 0.20794,-0.79059 0.22094,-0.19439 0.66283,-0.19439 0.19493,0 0.33796,0.1296 0.14294,0.12959 0.14294,0.33696 0,0.45362 -0.42892,0.45362 -0.44189,0 -0.44189,-0.41473 0,-0.0778 0.0258,-0.14257 0.0258,-0.0648 0.0649,-0.1296 -0.25991,0.0388 -0.35092,0.23328 -0.078,0.18145 -0.078,0.50545 0.013,0.27217 0.013,0.40177 0.50692,0.24625 0.79285,0.64803 0.29891,0.40176 0.29891,0.93313 0,0.79058 -0.75385,1.29603 -0.67585,0.45361 -1.52065,0.45361 -0.59786,0 -1.13073,-0.20737 -0.4549,0 -0.74084,0.14257 -0.3769,0.19441 -0.3769,0.63506 0,0.1944 0.32489,0.29808 0.31196,0.11665 1.22174,0.11665 h 0.75385 q 1.15671,0 1.75457,0.31104 0.75386,0.38881 0.75386,1.29603 0,0.95907 -0.68883,1.47747 -0.67586,0.51843 -1.78063,0.51843 -1.31272,0 -2.09253,-0.44066 -0.77983,-0.4277 -0.77983,-0.98498 0,-0.36289 0.42892,-0.60914 0.29891,-0.16848 0.93581,-0.34992 -0.57188,-0.20737 -0.84483,-0.44066 -0.37691,-0.32401 -0.37691,-0.84242 0,-0.54433 0.32489,-0.89425 0.32497,-0.34993 0.92283,-0.34993 z m 2.50843,-1.49044 q 0,-0.8165 -0.22092,-1.21826 -0.25995,-0.47954 -0.89683,-0.47954 -0.58485,0 -0.8578,0.45361 -0.25996,0.45361 -0.25996,1.24419 0,0.90722 0.22098,1.29602 0.23393,0.38883 0.89678,0.38883 0.59789,0 0.85784,-0.40178 0.25991,-0.41473 0.25991,-1.28307 z m -0.94878,6.28574 q 0.88383,0 1.36468,-0.36288 0.4939,-0.36289 0.4939,-0.8813 0,-0.62209 -0.40292,-0.84242 -0.38988,-0.22032 -1.45566,-0.22032 -1.22171,0 -1.67661,0.27216 -0.38992,0.23329 -0.38992,0.80354 0,0.54433 0.31196,0.8165 0.48085,0.41472 1.75457,0.41472 z"
       style="font-style:normal;font-variant:normal;font-weight:normal;font-stretch:normal;font-size:35.10945892px;line-height:1.25;font-family:'Modern No. 20';-inkscape-font-specification:'Modern No. 20';text-align:center;letter-spacing:0px;word-spacing:0px;text-anchor:middle;opacity:0.98000004;fill:#c345b2;fill-opacity:1;stroke:none;stroke-width:0.36966312"
       id="path1805" />
    <path
       inkscape:connector-curvature="0"
       d="m 183.33734,159.80113 q -0.27292,0.79058 -0.50688,1.10162 -0.27297,0.3629 -0.70184,0.3629 -0.54589,0 -0.80584,-0.11666 -0.25994,-0.10368 -0.3379,-0.37584 -0.065,-0.25921 -0.065,-0.41474 0,-0.3888 0.36394,-0.5832 0.14298,-0.0778 0.29893,-0.0778 0.24695,0 0.4289,0.18144 0.19499,0.1944 0.19499,0.50545 0,0.55728 -0.51989,0.62209 0.0909,0.0908 0.18194,0.10368 0.10399,0.013 0.20798,0.013 0.35089,0 0.57187,-0.27217 0.22091,-0.2592 0.46788,-0.97202 l 0.41587,-1.16643 -1.87153,-5.06747 q -0.117,-0.2981 -0.14298,-0.34993 -0.0781,-0.12961 -0.45491,-0.12961 h -0.29894 v -0.14256 h 2.98935 v 0.14256 q -0.29891,0 -0.61087,0.013 -0.29895,0 -0.29895,0.15553 l 0.0781,0.25919 1.23471,3.33081 0.87081,-2.54023 q 0.15596,-0.4536 0.15596,-0.69985 0,-0.51841 -0.87081,-0.51841 v -0.14256 h 2.18352 v 0.14256 q -0.4939,0 -0.76683,0.24624 -0.27295,0.2333 -0.61087,1.19235 z"
       style="font-style:normal;font-variant:normal;font-weight:normal;font-stretch:normal;font-size:35.10945892px;line-height:1.25;font-family:'Modern No. 20';-inkscape-font-specification:'Modern No. 20';text-align:center;letter-spacing:0px;word-spacing:0px;text-anchor:middle;opacity:0.98000004;fill:#c345b2;fill-opacity:1;stroke:none;stroke-width:0.36966312"
       id="path1807" />
    <path
       inkscape:connector-curvature="0"
       d="M 55.552814,115.28552 47.648467,145.75 H 45.578308 L 31.777066,109.28019 q -0.941015,-2.56477 -1.94474,-3.00266 -0.940978,-0.50044 -5.269539,-0.50044 v -0.62556 h 21.454637 v 0.62556 q -3.826697,0 -5.332286,0.43789 -1.442879,0.37533 -1.442879,1.56388 0,0.62556 0.376407,1.50133 l 9.723593,26.21073 5.708692,-21.76929 -1.317384,-4.44144 q -0.752814,-2.50221 -1.819247,-3.00266 -1.066472,-0.50044 -5.457782,-0.50044 v -0.62556 h 21.391929 v 0.62556 q -3.826697,0 -5.332286,0.43789 -1.442879,0.37533 -1.442879,1.689 0,0.68811 0.250951,1.37621 l 8.092547,26.27328 6.963332,-19.45473 q 1.066472,-3.06522 1.066472,-5.00445 0,-5.3172 -7.527939,-5.3172 v -0.62556 h 16.122349 v 0.62556 q -4.454054,0 -6.58696,4.56655 -0.31366,0.68811 -2.32111,6.13043 L 66.844741,145.75 h -2.00745 z"
       style="font-style:normal;font-variant:normal;font-weight:normal;font-stretch:normal;font-size:169.46263123px;line-height:1.25;font-family:'Modern No. 20';-inkscape-font-specification:'Modern No. 20';text-align:center;letter-spacing:0px;word-spacing:0px;text-anchor:middle;opacity:0.98000004;fill:#ffffff;fill-opacity:1;stroke:none;stroke-width:0.36966312"
       id="path1749" />
    <path
       inkscape:connector-curvature="0"
       d="m 110.49409,144.68656 q 7.59064,0 11.60555,-4.56655 4.0149,-4.62909 4.0149,-13.94986 h 0.75282 v 19.32963 H 85.840039 v -0.68811 q 2.760263,0 4.704969,-0.18767 1.94474,-0.18766 2.634805,-0.43788 0.752776,-0.31278 0.940978,-0.68812 0.25095,-0.43788 0.25095,-2.18942 v -32.02839 q 0,-1.8141 -0.25095,-2.25199 -0.125457,-0.25022 -0.878268,-0.50044 -0.690066,-0.25023 -2.822971,-0.50045 -2.0702,-0.25022 -4.579513,-0.25022 v -0.62556 h 25.783231 v 0.62556 q -3.51303,0 -5.52048,0.18767 -1.94475,0.18766 -2.76027,0.50044 -0.81552,0.31278 -0.94098,0.563 -0.31365,0.563 -0.31365,2.25199 v 31.96582 q 0,1.81411 0.2509,2.31455 0.12547,0.25023 0.75282,0.50044 2.13291,0.62556 7.40248,0.62556 z"
       style="font-style:normal;font-variant:normal;font-weight:normal;font-stretch:normal;font-size:169.46263123px;line-height:1.25;font-family:'Modern No. 20';-inkscape-font-specification:'Modern No. 20';text-align:center;letter-spacing:0px;word-spacing:0px;text-anchor:middle;opacity:0.98000004;fill:#ffffff;fill-opacity:1;stroke:none;stroke-width:0.36966312"
       id="path1751" />
    <path
       inkscape:connector-curvature="0"
       d="m 140.46374,118.85117 v 23.58339 q 0,1.25111 0.18819,1.62644 0.12546,0.18767 0.56458,0.37534 1.31738,0.43788 5.45778,0.43788 v 0.62556 h -18.318 v -0.62556 q 1.81924,0 3.26208,-0.1251 1.50559,-0.12512 2.57206,-0.50045 0.37641,-0.31278 0.37641,-1.81411 v -19.39218 q 0,-1.18854 -0.25096,-1.50132 -0.43911,-0.62555 -0.81551,-0.75067 -1.12919,-0.31277 -5.14408,-0.31277 v -0.62556 z m -3.32485,-14.20008 q 1.5056,0 2.50931,1.00089 1.00373,1.00089 1.00373,2.50222 0,1.50133 -1.00373,2.50221 -1.00371,1.00089 -2.50931,1.00089 -1.50558,0 -2.50934,-1.00089 -1.00373,-1.00088 -1.00373,-2.50221 0,-1.50133 1.00373,-2.50222 1.00376,-1.00089 2.50934,-1.00089 z"
       style="font-style:normal;font-variant:normal;font-weight:normal;font-stretch:normal;font-size:169.46263123px;line-height:1.25;font-family:'Modern No. 20';-inkscape-font-specification:'Modern No. 20';text-align:center;letter-spacing:0px;word-spacing:0px;text-anchor:middle;opacity:0.98000004;fill:#ffffff;fill-opacity:1;stroke:none;stroke-width:0.36966312"
       id="path1753" />
    <path
       inkscape:connector-curvature="0"
       d="m 185.58828,105.15153 v 17.8283 h -0.87827 q -1.44284,-10.19653 -4.57951,-14.01241 -2.57203,-3.19033 -7.59069,-3.19033 -1.25463,0 -1.3801,0.12511 -0.25094,0.18767 -0.25094,1.62644 v 33.77994 q 0,1.8141 0.25094,2.31454 0.12547,0.25022 0.87825,0.563 0.7528,0.25022 2.8857,0.43788 2.13295,0.18767 5.77145,0.18767 v 0.68811 h -27.28882 v -0.68811 q 3.57578,0 5.70869,-0.18767 2.13294,-0.18766 2.88571,-0.43788 0.75282,-0.31278 0.94103,-0.68812 0.2509,-0.43788 0.2509,-2.18942 V 107.5912 q 0,-1.62644 -0.3764,-1.75156 -0.1882,-0.0625 -1.31738,-0.0625 -4.89318,0 -7.4652,3.12777 -3.13666,3.87844 -4.70496,13.94986 h -0.87828 v -17.70319 z"
       style="font-style:normal;font-variant:normal;font-weight:normal;font-stretch:normal;font-size:169.46263123px;line-height:1.25;font-family:'Modern No. 20';-inkscape-font-specification:'Modern No. 20';text-align:center;letter-spacing:0px;word-spacing:0px;text-anchor:middle;opacity:0.98000004;fill:#ffffff;fill-opacity:1;stroke:none;stroke-width:0.36966312"
       id="path1755" />
    <g
       aria-label="i"
       transform="matrix(0.37018708,0,0,0.36913991,-732.15477,148.07361)"
       style="font-style:normal;font-variant:normal;font-weight:normal;font-stretch:normal;line-height:0%;font-family:Verdana;-inkscape-font-specification:Verdana;text-align:center;letter-spacing:0px;word-spacing:0px;text-anchor:middle;opacity:0.98000004;fill:#b1129c;fill-opacity:1;stroke:none"
       id="text1750-7">
      <path
         inkscape:connector-curvature="0"
         d="m 2357.2153,-79.163401 v 63.887412 q 0,3.389253 0.5084,4.406028 0.3389,0.508388 1.5251,1.0167762 3.5588,1.1862384 14.7433,1.1862384 v 1.6946263 h -49.4831 v -1.6946263 q 4.9144,0 8.8121,-0.3389253 4.0671,-0.3389252 6.9479,-1.3557013 1.0168,-0.847313 1.0168,-4.914416 v -52.533416 q 0,-3.21979 -0.6778,-4.067103 -1.1863,-1.694626 -2.2031,-2.033551 -3.0503,-0.847314 -13.8959,-0.847314 v -1.694626 z m -8.9815,-38.468019 q 4.0671,0 6.7785,2.7114 2.7114,2.71141 2.7114,6.77851 0,4.0671 -2.7114,6.7785 -2.7114,2.711406 -6.7785,2.711406 -4.0671,0 -6.7785,-2.711406 -2.7114,-2.7114 -2.7114,-6.7785 0,-4.0671 2.7114,-6.77851 2.7114,-2.7114 6.7785,-2.7114 z"
         style="font-style:normal;font-variant:normal;font-weight:normal;font-stretch:normal;font-size:169.46263123px;line-height:1.25;font-family:'Modern No. 20';-inkscape-font-specification:'Modern No. 20';fill:#b1129c;fill-opacity:1;stroke:none"
         id="path1745" />
    </g>
  </g>
</svg>
